<?xml version="1.0" encoding="UTF-8"?>
<svg xmlns="http://www.w3.org/2000/svg" xmlns:xlink="http://www.w3.org/1999/xlink" width="2349.4" height="3314" viewBox="0 0 2349.4 3314">
<defs>
<clipPath id="clip-0">
<path clip-rule="nonzero" d="M 0 0 L 2349.398438 0 L 2349.398438 3314 L 0 3314 Z M 0 0 "/>
</clipPath>
<clipPath id="clip-1">
<path clip-rule="evenodd" d="M 1323.699219 2619.5 C 1323.699219 2597.5 1305.898438 2579.699219 1283.898438 2579.699219 L 475.300781 2579.699219 C 453.300781 2579.699219 435.5 2597.5 435.5 2619.5 C 435.5 2641.5 453.300781 2659.300781 475.300781 2659.300781 L 1283.898438 2659.300781 C 1305.800781 2659.300781 1323.699219 2641.5 1323.699219 2619.5 Z M 320.5 1829.300781 C 320.5 1818.800781 316.300781 1808.601562 308.898438 1801.101562 C 307 1799.300781 305 1797.601562 302.800781 1796.199219 C 300.699219 1794.800781 298.300781 1793.5 296 1792.5 C 293.601562 1791.601562 291.101562 1790.699219 288.5 1790.199219 C 283.398438 1789.199219 278.101562 1789.199219 273 1790.199219 C 270.5 1790.699219 268 1791.5 265.5 1792.5 C 263.101562 1793.398438 260.898438 1794.699219 258.699219 1796.199219 C 256.5 1797.601562 254.5 1799.300781 252.601562 1801.101562 C 245.199219 1808.601562 240.898438 1818.699219 240.898438 1829.300781 C 240.898438 1831.800781 241.199219 1834.5 241.699219 1837 C 242.199219 1839.5 243 1842 243.898438 1844.5 C 244.898438 1846.898438 246.199219 1849.199219 247.601562 1851.300781 C 249 1853.5 250.699219 1855.5 252.5 1857.398438 C 259.898438 1864.800781 270.101562 1869.101562 280.601562 1869.101562 C 283.199219 1869.101562 285.800781 1868.800781 288.398438 1868.199219 C 290.898438 1867.699219 293.398438 1866.898438 295.898438 1866 C 298.300781 1865 300.601562 1863.699219 302.699219 1862.398438 C 304.898438 1861 307 1859.199219 308.800781 1857.398438 C 310.601562 1855.5 312.300781 1853.5 313.699219 1851.300781 C 315.101562 1849.199219 316.398438 1846.898438 317.300781 1844.5 C 318.300781 1842.101562 319.101562 1839.601562 319.601562 1837 C 320.199219 1834.5 320.5 1831.898438 320.5 1829.300781 Z M 320.5 2224.398438 C 320.5 2214 316.300781 2203.699219 308.898438 2196.300781 C 307 2194.398438 305 2192.800781 302.800781 2191.300781 C 300.699219 2189.898438 298.300781 2188.699219 296 2187.699219 C 293.601562 2186.800781 291.101562 2186 288.5 2185.5 C 283.398438 2184.5 278.101562 2184.5 273 2185.5 C 270.5 2186 268 2186.800781 265.5 2187.699219 C 263.101562 2188.699219 260.898438 2190 258.699219 2191.300781 C 256.5 2192.699219 254.5 2194.398438 252.601562 2196.300781 C 245.199219 2203.699219 240.898438 2213.898438 240.898438 2224.398438 C 240.898438 2227 241.199219 2229.601562 241.699219 2232.199219 C 242.199219 2234.699219 243 2237.199219 243.898438 2239.699219 C 244.898438 2242.101562 246.199219 2244.398438 247.601562 2246.5 C 249 2248.699219 250.699219 2250.699219 252.5 2252.601562 C 254.398438 2254.398438 256.398438 2256.101562 258.601562 2257.5 C 260.699219 2258.898438 263 2260.199219 265.398438 2261.101562 C 267.800781 2262.101562 270.300781 2262.898438 272.898438 2263.398438 C 275.398438 2263.898438 278.101562 2264.199219 280.699219 2264.199219 C 283.300781 2264.199219 285.898438 2263.898438 288.5 2263.398438 C 291 2262.898438 293.5 2262.101562 296 2261.101562 C 298.398438 2260.199219 300.699219 2258.898438 302.800781 2257.5 C 305 2256.101562 307.101562 2254.398438 308.898438 2252.601562 C 310.699219 2250.699219 312.398438 2248.699219 313.800781 2246.5 C 315.199219 2244.398438 316.5 2242 317.398438 2239.699219 C 318.398438 2237.300781 319.199219 2234.800781 319.699219 2232.199219 C 320.199219 2229.601562 320.5 2227 320.5 2224.398438 Z M 320.5 2619.5 C 320.5 2616.898438 320.300781 2614.199219 319.699219 2611.699219 C 319.199219 2609.199219 318.398438 2606.699219 317.398438 2604.300781 C 316.5 2601.898438 315.199219 2599.5 313.800781 2597.398438 C 312.398438 2595.300781 310.699219 2593.101562 308.898438 2591.398438 C 307 2589.5 305 2587.898438 302.800781 2586.398438 C 300.699219 2585 298.300781 2583.800781 296 2582.800781 C 293.601562 2581.898438 291.101562 2581.101562 288.5 2580.5 C 283.398438 2579.5 278.101562 2579.5 273 2580.5 C 270.5 2581.101562 268 2581.800781 265.5 2582.800781 C 263.101562 2583.800781 260.898438 2585 258.699219 2586.398438 C 256.5 2587.800781 254.5 2589.5 252.601562 2591.398438 C 250.800781 2593.199219 249.101562 2595.300781 247.699219 2597.398438 C 246.300781 2599.5 245 2601.898438 244 2604.300781 C 243.101562 2606.699219 242.300781 2609.199219 241.800781 2611.699219 C 241.199219 2614.199219 241 2616.898438 241 2619.5 C 241 2622 241.300781 2624.699219 241.800781 2627.199219 C 242.300781 2629.699219 243.101562 2632.199219 244 2634.699219 C 245 2637.101562 246.300781 2639.398438 247.699219 2641.601562 C 249.101562 2643.699219 250.800781 2645.800781 252.601562 2647.601562 C 260 2655 270.199219 2659.300781 280.699219 2659.300781 C 283.300781 2659.300781 285.898438 2659 288.5 2658.5 C 291 2657.898438 293.5 2657.199219 296 2656.199219 C 298.398438 2655.199219 300.699219 2654 302.800781 2652.601562 C 305 2651.199219 307.101562 2649.5 308.898438 2647.601562 C 310.699219 2645.800781 312.398438 2643.699219 313.800781 2641.601562 C 315.199219 2639.398438 316.5 2637.101562 317.398438 2634.699219 C 318.398438 2632.300781 319.199219 2629.800781 319.699219 2627.199219 C 320.199219 2624.699219 320.5 2622.101562 320.5 2619.5 Z M 435.5 2224.398438 C 435.5 2246.398438 453.300781 2264.199219 475.300781 2264.199219 L 1798.300781 2264.199219 C 1820.300781 2264.199219 1838.101562 2246.398438 1838.101562 2224.398438 C 1838.101562 2202.398438 1820.300781 2184.601562 1798.300781 2184.601562 L 475.199219 2184.601562 C 453.398438 2184.699219 435.601562 2202.5 435.5 2224.398438 Z M 435.5 1829.300781 C 435.5 1851.300781 453.300781 1869.101562 475.300781 1869.101562 L 1798.300781 1869.101562 C 1820.300781 1869.101562 1838.101562 1851.300781 1838.101562 1829.300781 C 1838.101562 1807.300781 1820.300781 1789.5 1798.300781 1789.5 L 475.300781 1789.5 C 453.398438 1789.5 435.601562 1807.300781 435.5 1829.300781 Z M 520.800781 869.101562 C 520.800781 1021.101562 586.5 1158.101562 691.101562 1253 C 692.800781 1254.800781 694.601562 1256.398438 696.5 1257.898438 C 788 1338.699219 908.101562 1387.898438 1039.5 1387.898438 C 1170.898438 1387.898438 1290.898438 1338.800781 1382.5 1258 C 1384.5 1256.601562 1386.300781 1254.898438 1388 1253.101562 C 1492.5 1158.199219 1558.300781 1021.199219 1558.199219 869.199219 C 1558.199219 583.199219 1325.601562 350.5 1039.5 350.5 C 753.601562 350.398438 520.898438 583.101562 520.800781 869.101562 Z M 1401.300781 2879.699219 C 1401.300781 2924.601562 1407.101562 2968.199219 1418 3009.699219 L 44.601562 3009.699219 C 20.101562 3009.699219 0 2989.699219 0 2965.101562 L 0 44.601562 C 0 20 20.101562 0 44.601562 0 L 2034.300781 0 C 2058.898438 0 2078.898438 19.898438 2078.898438 44.5 L 2078.898438 2392.5 C 2027.398438 2375.199219 1972.398438 2365.699219 1915.199219 2365.699219 C 1631.800781 2365.800781 1401.300781 2596.300781 1401.300781 2879.699219 Z M 2183.800781 2661.601562 C 2161.699219 2639.398438 2132.101562 2627.101562 2100.699219 2627.199219 C 2069.199219 2627.199219 2039.800781 2639.398438 2017.5 2661.601562 L 1835.300781 2843.699219 L 1812.898438 2821.300781 C 1767.101562 2775.398438 1692.5 2775.5 1646.601562 2821.300781 C 1624.398438 2843.5 1612.300781 2873 1612.199219 2904.398438 C 1612.199219 2935.800781 1624.398438 2965.300781 1646.601562 2987.5 L 1759.601562 3100.5 C 1780.5 3121.398438 1807.898438 3131.800781 1835.300781 3131.800781 C 1862.699219 3131.800781 1890.101562 3121.300781 1910.898438 3100.5 L 2183.699219 2827.699219 C 2229.601562 2782.101562 2229.601562 2707.398438 2183.800781 2661.601562 Z M 2349.398438 2879.699219 C 2349.398438 3119.199219 2154.601562 3314 1915.199219 3314 C 1675.800781 3314 1480.898438 3119.199219 1480.898438 2879.699219 C 1480.898438 2640.199219 1675.699219 2445.398438 1915.199219 2445.398438 C 2154.601562 2445.398438 2349.398438 2640.101562 2349.398438 2879.699219 Z M 2100.601562 2706.699219 C 2090.398438 2706.699219 2080.800781 2710.601562 2073.699219 2717.800781 L 1863.398438 2928.101562 C 1855.898438 2935.601562 1845.800781 2939.800781 1835.300781 2939.800781 C 1824.800781 2939.800781 1814.699219 2935.601562 1807.199219 2928.101562 L 1756.699219 2877.601562 C 1741.800781 2862.699219 1717.699219 2862.699219 1702.898438 2877.601562 C 1695.699219 2884.800781 1691.699219 2894.398438 1691.699219 2904.5 C 1691.699219 2914.601562 1695.699219 2924.300781 1702.898438 2931.398438 L 1815.898438 3044.398438 C 1826.601562 3055.101562 1844.101562 3055.199219 1854.898438 3044.398438 L 2127.699219 2771.601562 C 2142.5 2756.699219 2142.5 2732.601562 2127.699219 2717.800781 C 2120.398438 2710.601562 2110.800781 2706.699219 2100.601562 2706.699219 Z M 903.5 941.898438 C 863.800781 905.199219 839 852.800781 839 794.601562 C 839 684 929 594 1039.601562 594 C 1150.199219 594 1240.199219 684 1240.199219 794.601562 C 1240.199219 852.699219 1215.300781 905.101562 1175.699219 941.800781 C 1268.300781 978.898438 1342.398438 1052.898438 1378.800781 1147.699219 C 1441.199219 1071.800781 1478.800781 974.800781 1478.800781 869 C 1478.800781 626.898438 1281.800781 429.800781 1039.699219 429.800781 C 797.601562 429.800781 600.5 626.800781 600.5 869 C 600.5 974.699219 638 1071.800781 700.5 1147.699219 C 736.800781 1053.101562 811 979 903.5 941.898438 Z M 1039.601562 995.398438 C 907.5 995.398438 794.898438 1084.699219 763.800781 1210.699219 C 839.199219 1271.699219 935.199219 1308.300781 1039.601562 1308.300781 C 1144 1308.300781 1239.898438 1271.699219 1315.398438 1210.699219 C 1284.199219 1084.601562 1171.699219 995.398438 1039.601562 995.398438 Z M 1039.601562 915.800781 C 972.800781 915.800781 918.5 861.5 918.5 794.699219 C 918.5 727.898438 972.898438 673.699219 1039.601562 673.699219 C 1106.398438 673.699219 1160.601562 728 1160.601562 794.800781 C 1160.601562 861.5 1106.300781 915.800781 1039.601562 915.800781 "/>
</clipPath>
<linearGradient id="linear-pattern-0" gradientUnits="userSpaceOnUse" x1="-0.00486499" y1="0" x2="1.047315" y2="0" gradientTransform="matrix(2691.27, 2691.27, -2691.27, 2691.27, -219.584, 245.77)">
<stop offset="0" stop-color="rgb(83.769226%, 15.103149%, 17.62085%)" stop-opacity="1"/>
<stop offset="0.0078125" stop-color="rgb(83.772278%, 15.176392%, 17.581177%)" stop-opacity="1"/>
<stop offset="0.0117188" stop-color="rgb(83.786011%, 15.428162%, 17.43927%)" stop-opacity="1"/>
<stop offset="0.015625" stop-color="rgb(83.795166%, 15.608215%, 17.338562%)" stop-opacity="1"/>
<stop offset="0.0195313" stop-color="rgb(83.80127%, 15.748596%, 17.240906%)" stop-opacity="1"/>
<stop offset="0.0234375" stop-color="rgb(83.808899%, 15.888977%, 17.14325%)" stop-opacity="1"/>
<stop offset="0.0273438" stop-color="rgb(83.815002%, 15.988159%, 17.050171%)" stop-opacity="1"/>
<stop offset="0.03125" stop-color="rgb(83.81958%, 16.085815%, 16.955566%)" stop-opacity="1"/>
<stop offset="0.0351562" stop-color="rgb(83.909607%, 16.233826%, 16.860962%)" stop-opacity="1"/>
<stop offset="0.0390625" stop-color="rgb(83.996582%, 16.38031%, 16.766357%)" stop-opacity="1"/>
<stop offset="0.0429688" stop-color="rgb(84.155273%, 16.566467%, 16.670227%)" stop-opacity="1"/>
<stop offset="0.046875" stop-color="rgb(84.312439%, 16.75415%, 16.574097%)" stop-opacity="1"/>
<stop offset="0.0507813" stop-color="rgb(84.378052%, 16.886902%, 16.477966%)" stop-opacity="1"/>
<stop offset="0.0546875" stop-color="rgb(84.440613%, 17.019653%, 16.38031%)" stop-opacity="1"/>
<stop offset="0.0585938" stop-color="rgb(84.44519%, 17.118835%, 16.28418%)" stop-opacity="1"/>
<stop offset="0.0625" stop-color="rgb(84.451294%, 17.218018%, 16.186523%)" stop-opacity="1"/>
<stop offset="0.0664063" stop-color="rgb(84.507751%, 17.312622%, 16.082764%)" stop-opacity="1"/>
<stop offset="0.0703125" stop-color="rgb(84.562683%, 17.404175%, 15.977478%)" stop-opacity="1"/>
<stop offset="0.0742188" stop-color="rgb(84.643555%, 17.495728%, 15.870667%)" stop-opacity="1"/>
<stop offset="0.078125" stop-color="rgb(84.7229%, 17.585754%, 15.762329%)" stop-opacity="1"/>
<stop offset="0.0859375" stop-color="rgb(84.74884%, 17.736816%, 15.687561%)" stop-opacity="1"/>
<stop offset="0.0898438" stop-color="rgb(84.783936%, 18.057251%, 15.550232%)" stop-opacity="1"/>
<stop offset="0.09375" stop-color="rgb(84.793091%, 18.226624%, 15.486145%)" stop-opacity="1"/>
<stop offset="0.101562" stop-color="rgb(84.860229%, 18.331909%, 15.385437%)" stop-opacity="1"/>
<stop offset="0.105469" stop-color="rgb(85.00824%, 18.528748%, 15.17334%)" stop-opacity="1"/>
<stop offset="0.109375" stop-color="rgb(85.087585%, 18.618774%, 15.061951%)" stop-opacity="1"/>
<stop offset="0.117188" stop-color="rgb(85.10437%, 18.780518%, 14.99176%)" stop-opacity="1"/>
<stop offset="0.121094" stop-color="rgb(85.13031%, 19.111633%, 14.855957%)" stop-opacity="1"/>
<stop offset="0.125" stop-color="rgb(85.139465%, 19.281006%, 14.788818%)" stop-opacity="1"/>
<stop offset="0.132813" stop-color="rgb(85.289001%, 19.384766%, 14.738464%)" stop-opacity="1"/>
<stop offset="0.140625" stop-color="rgb(85.594177%, 19.593811%, 14.633179%)" stop-opacity="1"/>
<stop offset="0.144531" stop-color="rgb(85.832214%, 19.862366%, 14.501953%)" stop-opacity="1"/>
<stop offset="0.148438" stop-color="rgb(85.916138%, 20.027161%, 14.424133%)" stop-opacity="1"/>
<stop offset="0.15625" stop-color="rgb(85.992432%, 20.184326%, 14.352417%)" stop-opacity="1"/>
<stop offset="0.164062" stop-color="rgb(86.073303%, 20.420837%, 14.268494%)" stop-opacity="1"/>
<stop offset="0.171875" stop-color="rgb(86.096191%, 20.584106%, 14.23645%)" stop-opacity="1"/>
<stop offset="0.179688" stop-color="rgb(86.195374%, 20.748901%, 14.147949%)" stop-opacity="1"/>
<stop offset="0.1875" stop-color="rgb(86.373901%, 20.918274%, 14.024353%)" stop-opacity="1"/>
<stop offset="0.195312" stop-color="rgb(86.630249%, 21.101379%, 13.961792%)" stop-opacity="1"/>
<stop offset="0.203125" stop-color="rgb(86.921692%, 21.315002%, 13.923645%)" stop-opacity="1"/>
<stop offset="0.207031" stop-color="rgb(87.142944%, 21.598816%, 13.81073%)" stop-opacity="1"/>
<stop offset="0.210938" stop-color="rgb(87.228394%, 21.765137%, 13.728333%)" stop-opacity="1"/>
<stop offset="0.21875" stop-color="rgb(87.284851%, 21.905518%, 13.63678%)" stop-opacity="1"/>
<stop offset="0.222656" stop-color="rgb(87.347412%, 22.145081%, 13.43689%)" stop-opacity="1"/>
<stop offset="0.226563" stop-color="rgb(87.353516%, 22.244263%, 13.328552%)" stop-opacity="1"/>
<stop offset="0.234375" stop-color="rgb(87.394714%, 22.372437%, 13.230896%)" stop-opacity="1"/>
<stop offset="0.238281" stop-color="rgb(87.522888%, 22.666931%, 13.049316%)" stop-opacity="1"/>
<stop offset="0.242188" stop-color="rgb(87.609863%, 22.834778%, 12.963867%)" stop-opacity="1"/>
<stop offset="0.25" stop-color="rgb(87.654114%, 22.956848%, 12.916565%)" stop-opacity="1"/>
<stop offset="0.257812" stop-color="rgb(87.704468%, 23.162842%, 12.85553%)" stop-opacity="1"/>
<stop offset="0.265625" stop-color="rgb(87.762451%, 23.370361%, 12.815857%)" stop-opacity="1"/>
<stop offset="0.269531" stop-color="rgb(87.901306%, 23.655701%, 12.75177%)" stop-opacity="1"/>
<stop offset="0.273438" stop-color="rgb(87.988281%, 23.815918%, 12.715149%)" stop-opacity="1"/>
<stop offset="0.277344" stop-color="rgb(88.024902%, 23.977661%, 12.686157%)" stop-opacity="1"/>
<stop offset="0.28125" stop-color="rgb(88.061523%, 24.139404%, 12.657166%)" stop-opacity="1"/>
<stop offset="0.285156" stop-color="rgb(88.072205%, 24.302673%, 12.632751%)" stop-opacity="1"/>
<stop offset="0.289062" stop-color="rgb(88.08136%, 24.465942%, 12.606812%)" stop-opacity="1"/>
<stop offset="0.296875" stop-color="rgb(88.087463%, 24.571228%, 12.591553%)" stop-opacity="1"/>
<stop offset="0.304688" stop-color="rgb(88.09967%, 24.757385%, 12.562561%)" stop-opacity="1"/>
<stop offset="0.3125" stop-color="rgb(88.175964%, 24.983215%, 12.516785%)" stop-opacity="1"/>
<stop offset="0.316406" stop-color="rgb(88.33313%, 25.286865%, 12.44812%)" stop-opacity="1"/>
<stop offset="0.320312" stop-color="rgb(88.420105%, 25.447083%, 12.409973%)" stop-opacity="1"/>
<stop offset="0.324219" stop-color="rgb(88.510132%, 25.631714%, 12.394714%)" stop-opacity="1"/>
<stop offset="0.328125" stop-color="rgb(88.597107%, 25.816345%, 12.37793%)" stop-opacity="1"/>
<stop offset="0.332031" stop-color="rgb(88.687134%, 26.005554%, 12.365723%)" stop-opacity="1"/>
<stop offset="0.335938" stop-color="rgb(88.775635%, 26.194763%, 12.35199%)" stop-opacity="1"/>
<stop offset="0.34375" stop-color="rgb(88.859558%, 26.281738%, 12.327576%)" stop-opacity="1"/>
<stop offset="0.351562" stop-color="rgb(89.025879%, 26.448059%, 12.277222%)" stop-opacity="1"/>
<stop offset="0.355469" stop-color="rgb(89.118958%, 26.6922%, 12.226868%)" stop-opacity="1"/>
<stop offset="0.359375" stop-color="rgb(89.129639%, 26.856995%, 12.200928%)" stop-opacity="1"/>
<stop offset="0.363281" stop-color="rgb(89.146423%, 27.02179%, 12.174988%)" stop-opacity="1"/>
<stop offset="0.367188" stop-color="rgb(89.161682%, 27.185059%, 12.149048%)" stop-opacity="1"/>
<stop offset="0.371094" stop-color="rgb(89.250183%, 27.348328%, 12.109375%)" stop-opacity="1"/>
<stop offset="0.375" stop-color="rgb(89.338684%, 27.510071%, 12.071228%)" stop-opacity="1"/>
<stop offset="0.382812" stop-color="rgb(89.41803%, 27.661133%, 12.036133%)" stop-opacity="1"/>
<stop offset="0.390625" stop-color="rgb(89.500427%, 27.896118%, 11.987305%)" stop-opacity="1"/>
<stop offset="0.398438" stop-color="rgb(89.529419%, 28.079224%, 11.956787%)" stop-opacity="1"/>
<stop offset="0.402344" stop-color="rgb(89.640808%, 28.340149%, 11.898804%)" stop-opacity="1"/>
<stop offset="0.40625" stop-color="rgb(89.729309%, 28.503418%, 11.860657%)" stop-opacity="1"/>
<stop offset="0.414062" stop-color="rgb(89.81781%, 28.645325%, 11.824036%)" stop-opacity="1"/>
<stop offset="0.421875" stop-color="rgb(89.99176%, 28.868103%, 11.763%)" stop-opacity="1"/>
<stop offset="0.429688" stop-color="rgb(90.135193%, 29.057312%, 11.709595%)" stop-opacity="1"/>
<stop offset="0.433594" stop-color="rgb(90.205383%, 29.333496%, 11.657715%)" stop-opacity="1"/>
<stop offset="0.4375" stop-color="rgb(90.216064%, 29.499817%, 11.631775%)" stop-opacity="1"/>
<stop offset="0.445312" stop-color="rgb(90.290833%, 29.631042%, 11.599731%)" stop-opacity="1"/>
<stop offset="0.449219" stop-color="rgb(90.52887%, 29.841614%, 11.526489%)" stop-opacity="1"/>
<stop offset="0.453125" stop-color="rgb(90.692139%, 29.920959%, 11.486816%)" stop-opacity="1"/>
<stop offset="0.460938" stop-color="rgb(90.821838%, 30.04303%, 11.445618%)" stop-opacity="1"/>
<stop offset="0.464844" stop-color="rgb(91.041565%, 30.329895%, 11.366272%)" stop-opacity="1"/>
<stop offset="0.46875" stop-color="rgb(91.133118%, 30.49469%, 11.325073%)" stop-opacity="1"/>
<stop offset="0.476563" stop-color="rgb(91.177368%, 30.61676%, 11.299133%)" stop-opacity="1"/>
<stop offset="0.484375" stop-color="rgb(91.227722%, 30.821228%, 11.260986%)" stop-opacity="1"/>
<stop offset="0.492188" stop-color="rgb(91.340637%, 31.005859%, 11.231995%)" stop-opacity="1"/>
<stop offset="0.5" stop-color="rgb(91.612244%, 31.219482%, 11.201477%)" stop-opacity="1"/>
<stop offset="0.507812" stop-color="rgb(91.8396%, 31.480408%, 11.161804%)" stop-opacity="1"/>
<stop offset="0.511719" stop-color="rgb(91.90979%, 31.797791%, 11.11145%)" stop-opacity="1"/>
<stop offset="0.515625" stop-color="rgb(91.921997%, 31.965637%, 11.083984%)" stop-opacity="1"/>
<stop offset="0.519531" stop-color="rgb(91.996765%, 32.133484%, 11.045837%)" stop-opacity="1"/>
<stop offset="0.523438" stop-color="rgb(92.068481%, 32.301331%, 11.00769%)" stop-opacity="1"/>
<stop offset="0.527344" stop-color="rgb(92.16156%, 32.469177%, 10.966492%)" stop-opacity="1"/>
<stop offset="0.53125" stop-color="rgb(92.253113%, 32.637024%, 10.925293%)" stop-opacity="1"/>
<stop offset="0.535156" stop-color="rgb(92.280579%, 32.804871%, 10.894775%)" stop-opacity="1"/>
<stop offset="0.539063" stop-color="rgb(92.306519%, 32.972717%, 10.865784%)" stop-opacity="1"/>
<stop offset="0.542969" stop-color="rgb(92.318726%, 33.140564%, 10.838318%)" stop-opacity="1"/>
<stop offset="0.546875" stop-color="rgb(92.332458%, 33.308411%, 10.810852%)" stop-opacity="1"/>
<stop offset="0.550781" stop-color="rgb(92.416382%, 33.476257%, 10.771179%)" stop-opacity="1"/>
<stop offset="0.554688" stop-color="rgb(92.500305%, 33.644104%, 10.731506%)" stop-opacity="1"/>
<stop offset="0.558594" stop-color="rgb(92.59491%, 33.815002%, 10.688782%)" stop-opacity="1"/>
<stop offset="0.5625" stop-color="rgb(92.687988%, 33.982849%, 10.646057%)" stop-opacity="1"/>
<stop offset="0.566406" stop-color="rgb(92.704773%, 34.150696%, 10.618591%)" stop-opacity="1"/>
<stop offset="0.570313" stop-color="rgb(92.718506%, 34.320068%, 10.591125%)" stop-opacity="1"/>
<stop offset="0.574219" stop-color="rgb(92.735291%, 34.487915%, 10.562134%)" stop-opacity="1"/>
<stop offset="0.578125" stop-color="rgb(92.750549%, 34.655762%, 10.534668%)" stop-opacity="1"/>
<stop offset="0.582031" stop-color="rgb(92.845154%, 34.825134%, 10.491943%)" stop-opacity="1"/>
<stop offset="0.585938" stop-color="rgb(92.938232%, 34.994507%, 10.449219%)" stop-opacity="1"/>
<stop offset="0.59375" stop-color="rgb(93.023682%, 35.15625%, 10.409546%)" stop-opacity="1"/>
<stop offset="0.601562" stop-color="rgb(93.115234%, 35.401917%, 10.35614%)" stop-opacity="1"/>
<stop offset="0.609375" stop-color="rgb(93.144226%, 35.598755%, 10.321045%)" stop-opacity="1"/>
<stop offset="0.613281" stop-color="rgb(93.267822%, 35.966492%, 10.243225%)" stop-opacity="1"/>
<stop offset="0.617187" stop-color="rgb(93.36853%, 36.219788%, 10.186768%)" stop-opacity="1"/>
<stop offset="0.621094" stop-color="rgb(93.447876%, 36.434937%, 10.140991%)" stop-opacity="1"/>
<stop offset="0.625" stop-color="rgb(93.525696%, 36.64856%, 10.093689%)" stop-opacity="1"/>
<stop offset="0.632812" stop-color="rgb(93.531799%, 36.734009%, 10.079956%)" stop-opacity="1"/>
<stop offset="0.640625" stop-color="rgb(93.55011%, 36.955261%, 10.043335%)" stop-opacity="1"/>
<stop offset="0.644531" stop-color="rgb(93.580627%, 37.34436%, 9.979248%)" stop-opacity="1"/>
<stop offset="0.648437" stop-color="rgb(93.600464%, 37.597656%, 9.938049%)" stop-opacity="1"/>
<stop offset="0.652344" stop-color="rgb(93.644714%, 37.789917%, 9.899902%)" stop-opacity="1"/>
<stop offset="0.65625" stop-color="rgb(93.690491%, 37.979126%, 9.863281%)" stop-opacity="1"/>
<stop offset="0.664062" stop-color="rgb(93.780518%, 38.067627%, 9.832764%)" stop-opacity="1"/>
<stop offset="0.671875" stop-color="rgb(93.925476%, 38.278198%, 9.77478%)" stop-opacity="1"/>
<stop offset="0.675781" stop-color="rgb(93.992615%, 38.569641%, 9.718323%)" stop-opacity="1"/>
<stop offset="0.679688" stop-color="rgb(94.006348%, 38.739014%, 9.689331%)" stop-opacity="1"/>
<stop offset="0.683594" stop-color="rgb(94.062805%, 38.911438%, 9.65271%)" stop-opacity="1"/>
<stop offset="0.6875" stop-color="rgb(94.119263%, 39.082336%, 9.617615%)" stop-opacity="1"/>
<stop offset="0.691406" stop-color="rgb(94.215393%, 39.254761%, 9.571838%)" stop-opacity="1"/>
<stop offset="0.695312" stop-color="rgb(94.311523%, 39.427185%, 9.527588%)" stop-opacity="1"/>
<stop offset="0.703125" stop-color="rgb(94.355774%, 39.547729%, 9.501648%)" stop-opacity="1"/>
<stop offset="0.710938" stop-color="rgb(94.404602%, 39.755249%, 9.460449%)" stop-opacity="1"/>
<stop offset="0.71875" stop-color="rgb(94.477844%, 39.981079%, 9.413147%)" stop-opacity="1"/>
<stop offset="0.722656" stop-color="rgb(94.639587%, 40.298462%, 9.333801%)" stop-opacity="1"/>
<stop offset="0.726563" stop-color="rgb(94.735718%, 40.470886%, 9.289551%)" stop-opacity="1"/>
<stop offset="0.730469" stop-color="rgb(94.833374%, 40.644836%, 9.243774%)" stop-opacity="1"/>
<stop offset="0.734375" stop-color="rgb(94.929504%, 40.818787%, 9.199524%)" stop-opacity="1"/>
<stop offset="0.738281" stop-color="rgb(95.027161%, 40.992737%, 9.153748%)" stop-opacity="1"/>
<stop offset="0.742188" stop-color="rgb(95.124817%, 41.166687%, 9.107971%)" stop-opacity="1"/>
<stop offset="0.746094" stop-color="rgb(95.15686%, 41.337585%, 9.075928%)" stop-opacity="1"/>
<stop offset="0.75" stop-color="rgb(95.187378%, 41.508484%, 9.04541%)" stop-opacity="1"/>
<stop offset="0.753906" stop-color="rgb(95.201111%, 41.679382%, 9.016418%)" stop-opacity="1"/>
<stop offset="0.757813" stop-color="rgb(95.214844%, 41.848755%, 8.987427%)" stop-opacity="1"/>
<stop offset="0.761719" stop-color="rgb(95.301819%, 42.022705%, 8.944702%)" stop-opacity="1"/>
<stop offset="0.765625" stop-color="rgb(95.388794%, 42.196655%, 8.901978%)" stop-opacity="1"/>
<stop offset="0.769531" stop-color="rgb(95.48645%, 42.373657%, 8.854675%)" stop-opacity="1"/>
<stop offset="0.773438" stop-color="rgb(95.584106%, 42.549133%, 8.810425%)" stop-opacity="1"/>
<stop offset="0.777344" stop-color="rgb(95.603943%, 42.718506%, 8.779907%)" stop-opacity="1"/>
<stop offset="0.78125" stop-color="rgb(95.623779%, 42.889404%, 8.74939%)" stop-opacity="1"/>
<stop offset="0.785156" stop-color="rgb(95.637512%, 43.060303%, 8.721924%)" stop-opacity="1"/>
<stop offset="0.789063" stop-color="rgb(95.652771%, 43.229675%, 8.692932%)" stop-opacity="1"/>
<stop offset="0.792969" stop-color="rgb(95.666504%, 43.400574%, 8.66394%)" stop-opacity="1"/>
<stop offset="0.796875" stop-color="rgb(95.681763%, 43.571472%, 8.634949%)" stop-opacity="1"/>
<stop offset="0.800781" stop-color="rgb(95.695496%, 43.740845%, 8.607483%)" stop-opacity="1"/>
<stop offset="0.804687" stop-color="rgb(95.709229%, 43.911743%, 8.578491%)" stop-opacity="1"/>
<stop offset="0.808594" stop-color="rgb(95.724487%, 44.082642%, 8.5495%)" stop-opacity="1"/>
<stop offset="0.8125" stop-color="rgb(95.73822%, 44.25354%, 8.520508%)" stop-opacity="1"/>
<stop offset="0.816406" stop-color="rgb(95.753479%, 44.424438%, 8.491516%)" stop-opacity="1"/>
<stop offset="0.820312" stop-color="rgb(95.767212%, 44.593811%, 8.46405%)" stop-opacity="1"/>
<stop offset="0.824219" stop-color="rgb(95.780945%, 44.764709%, 8.435059%)" stop-opacity="1"/>
<stop offset="0.828125" stop-color="rgb(95.796204%, 44.934082%, 8.406067%)" stop-opacity="1"/>
<stop offset="0.832031" stop-color="rgb(95.809937%, 45.10498%, 8.377075%)" stop-opacity="1"/>
<stop offset="0.835937" stop-color="rgb(95.825195%, 45.275879%, 8.348083%)" stop-opacity="1"/>
<stop offset="0.839844" stop-color="rgb(95.838928%, 45.445251%, 8.320618%)" stop-opacity="1"/>
<stop offset="0.84375" stop-color="rgb(95.852661%, 45.61615%, 8.291626%)" stop-opacity="1"/>
<stop offset="0.851562" stop-color="rgb(95.864868%, 45.762634%, 8.267212%)" stop-opacity="1"/>
<stop offset="0.859375" stop-color="rgb(95.884705%, 45.996094%, 8.227539%)" stop-opacity="1"/>
<stop offset="0.867188" stop-color="rgb(95.904541%, 46.22345%, 8.189392%)" stop-opacity="1"/>
<stop offset="0.871094" stop-color="rgb(95.93811%, 46.62323%, 8.122253%)" stop-opacity="1"/>
<stop offset="0.875" stop-color="rgb(95.959473%, 46.879578%, 8.079529%)" stop-opacity="1"/>
<stop offset="0.878906" stop-color="rgb(95.977783%, 47.10083%, 8.041382%)" stop-opacity="1"/>
<stop offset="0.882812" stop-color="rgb(95.996094%, 47.320557%, 8.004761%)" stop-opacity="1"/>
<stop offset="0.886719" stop-color="rgb(96.011353%, 47.489929%, 7.975769%)" stop-opacity="1"/>
<stop offset="0.890625" stop-color="rgb(96.025085%, 47.660828%, 7.946777%)" stop-opacity="1"/>
<stop offset="0.894531" stop-color="rgb(96.043396%, 47.872925%, 7.911682%)" stop-opacity="1"/>
<stop offset="0.898438" stop-color="rgb(96.060181%, 48.085022%, 7.876587%)" stop-opacity="1"/>
<stop offset="0.902344" stop-color="rgb(96.083069%, 48.34137%, 7.832336%)" stop-opacity="1"/>
<stop offset="0.90625" stop-color="rgb(96.104431%, 48.596191%, 7.789612%)" stop-opacity="1"/>
<stop offset="0.914063" stop-color="rgb(96.118164%, 48.757935%, 7.762146%)" stop-opacity="1"/>
<stop offset="0.921875" stop-color="rgb(96.138%, 49.005127%, 7.720947%)" stop-opacity="1"/>
<stop offset="0.925781" stop-color="rgb(96.160889%, 49.281311%, 7.675171%)" stop-opacity="1"/>
<stop offset="0.929688" stop-color="rgb(96.177673%, 49.472046%, 7.643127%)" stop-opacity="1"/>
<stop offset="0.933594" stop-color="rgb(96.199036%, 49.728394%, 7.598877%)" stop-opacity="1"/>
<stop offset="0.9375" stop-color="rgb(96.220398%, 49.983215%, 7.556152%)" stop-opacity="1"/>
<stop offset="0.945313" stop-color="rgb(96.232605%, 50.120544%, 7.533264%)" stop-opacity="1"/>
<stop offset="0.953125" stop-color="rgb(96.250916%, 50.344849%, 7.495117%)" stop-opacity="1"/>
<stop offset="0.96875" stop-color="rgb(96.260071%, 50.45166%, 7.478333%)" stop-opacity="1"/>
<stop offset="1" stop-color="rgb(96.261597%, 50.471497%, 7.473755%)" stop-opacity="1"/>
</linearGradient>
</defs>
<g clip-path="url(#clip-0)">
<g clip-path="url(#clip-1)">
<path fill-rule="nonzero" fill="url(#linear-pattern-0)" d="M 1174.699219 -1174.699219 L -1657 1657 L 1174.699219 4488.699219 L 4006.398438 1657 Z M 1174.699219 -1174.699219 "/>
</g>
</g>
</svg>
